<svg xmlns="http://www.w3.org/2000/svg" viewBox="0 0 100 100">
  <!-- Chat bubble background -->
  <path d="M10 15 Q10 8 17 8 L83 8 Q90 8 90 15 L90 62 Q90 69 83 69 L55 69 L45 85 L40 69 L17 69 Q10 69 10 62 Z"
        fill="#4A90D9" />
  <!-- Neural network nodes -->
  <circle cx="30" cy="30" r="5" fill="white" opacity="0.9"/>
  <circle cx="50" cy="22" r="5" fill="white" opacity="0.9"/>
  <circle cx="70" cy="30" r="5" fill="white" opacity="0.9"/>
  <circle cx="38" cy="48" r="5" fill="white" opacity="0.9"/>
  <circle cx="62" cy="48" r="5" fill="white" opacity="0.9"/>
  <circle cx="50" cy="38" r="5" fill="white" opacity="0.9"/>
  <!-- Neural network connections -->
  <line x1="30" y1="30" x2="50" y2="22" stroke="white" stroke-width="1.5" opacity="0.6"/>
  <line x1="50" y1="22" x2="70" y2="30" stroke="white" stroke-width="1.5" opacity="0.6"/>
  <line x1="30" y1="30" x2="50" y2="38" stroke="white" stroke-width="1.5" opacity="0.6"/>
  <line x1="70" y1="30" x2="50" y2="38" stroke="white" stroke-width="1.5" opacity="0.6"/>
  <line x1="50" y1="38" x2="38" y2="48" stroke="white" stroke-width="1.5" opacity="0.6"/>
  <line x1="50" y1="38" x2="62" y2="48" stroke="white" stroke-width="1.5" opacity="0.6"/>
  <line x1="30" y1="30" x2="38" y2="48" stroke="white" stroke-width="1.5" opacity="0.6"/>
  <line x1="70" y1="30" x2="62" y2="48" stroke="white" stroke-width="1.5" opacity="0.6"/>
</svg>
