<svg xmlns="http://www.w3.org/2000/svg" viewBox="0 0 1200 1200"><style></style><path d="M599.99 871a25.8 25.8 0 01-25.8-25.81v-292.4c0-14.26 11.56-25.81 25.81-25.81s25.81 11.55 25.81 25.81v236.28l64-54.86a25.829 25.829 0 0116.8-6.22h79.06L600 406.43 414.34 728h76.01c14.25 0 25.81 11.55 25.81 25.81s-11.56 25.81-25.81 25.81H369.63c-9.22 0-17.74-4.92-22.35-12.9s-4.61-17.82 0-25.81l230.37-399c4.61-7.98 13.13-12.9 22.35-12.9s17.74 4.92 22.35 12.9l230.37 399c4.61 7.98 4.61 17.82 0 25.81s-13.13 12.9-22.35 12.9H716.15l-99.36 85.16a25.723 25.723 0 01-16.8 6.22z" fill="red" id="Logo"/></svg>